# xmcd
#
# Track frame offsets: 
#        182
#        55827
#        84560
#        109565
#        167652
#        187907
#
# Disc length: 2781 seconds
#
# Revision: 1
# Processed by: cddbd v1.5.2PL0 Copyright (c) Steve Scherf et al.
# Submitted via: ExactAudioCopy v0.99pb4
#
DISCID=3f0adb06
DTITLE=Om - Om
DYEAR=1971
DGENRE=Psychedelic Rock
TTITLE0=excusa 6/8
TTITLE1=no ho sap ningu
TTITLE2=zitro's ache
TTITLE3=excusa num.1
TTITLE4=vindrà la llum
TTITLE5=waiting of godot
EXTD=
EXTT0=
EXTT1=
EXTT2=
EXTT3=
EXTT4=
EXTT5=
PLAYORDER=
